<svg width="51" height="17" viewBox="0 0 51 17" fill="none" xmlns="http://www.w3.org/2000/svg">
<g clip-path="url(#clip0_905_34)">
<path d="M18.375 4.375C17.625 5.5 17.4617 7.09352 17.4844 8.5C17.4872 8.67109 17.5427 8.91109 17.6036 9.12555C17.728 9.06855 17.8632 9.03906 18 9.03906C18.0713 9.03906 18.1406 9.04717 18.2076 9.06208L18.375 4.375ZM18 9.46094C17.6998 9.46094 17.461 9.69977 17.461 10C17.461 10.3002 17.6998 10.5391 18 10.5391C18.3003 10.5391 18.5391 10.3002 18.5391 10C18.5391 9.69977 18.3003 9.46094 18 9.46094ZM18.9563 10.0945C18.9352 10.3067 18.8443 10.4992 18.7071 10.6487L22.6831 13.1376C22.0838 11.9255 20.7855 10.9873 19.5561 10.3038C19.4069 10.2208 19.1721 10.1489 18.9563 10.0945ZM17.0837 10.2884L12.9404 12.4872C14.2897 12.5742 15.7515 11.919 16.9582 11.196C17.1052 11.1079 17.2851 10.9397 17.4405 10.7795C17.2741 10.6595 17.147 10.4878 17.0837 10.2884ZM18.3929 10.876C18.2695 10.932 18.1355 10.9609 18 10.9609C17.8645 10.961 17.7306 10.932 17.6071 10.8761L17.4375 15.625H18.5625L18.3929 10.876Z" fill="#4E4E4E"/>
<path d="M6.37502 4.375C5.62502 5.5 5.46166 7.09352 5.4844 8.5C5.48716 8.67109 5.54266 8.91109 5.6036 9.12555C5.72799 9.06855 5.8632 9.03906 6.00002 9.03906C6.07127 9.03906 6.14065 9.04717 6.20761 9.06208L6.37502 4.375ZM6.00002 9.46094C5.69979 9.46094 5.46096 9.69977 5.46096 10C5.46096 10.3002 5.69979 10.5391 6.00002 10.5391C6.30026 10.5391 6.53909 10.3002 6.53909 10C6.53909 9.69977 6.30026 9.46094 6.00002 9.46094ZM6.95627 10.0945C6.93525 10.3067 6.84434 10.4992 6.70709 10.6487L10.6831 13.1376C10.0838 11.9255 8.78552 10.9873 7.55609 10.3038C7.40688 10.2208 7.17206 10.1489 6.95627 10.0945ZM5.08371 10.2884L0.94043 12.4872C2.28973 12.5742 3.75145 11.919 4.95816 11.196C5.1052 11.1079 5.28511 10.9397 5.4405 10.7795C5.27409 10.6595 5.14702 10.4878 5.08371 10.2884ZM6.39293 10.876C6.2695 10.932 6.13554 10.9609 6.00002 10.9609C5.86451 10.961 5.73055 10.932 5.60712 10.8761L5.43752 15.625H6.56252L6.39293 10.876Z" fill="#4E4E4E"/>
<g clip-path="url(#clip1_905_34)">
<path d="M12.5 0.5C11.5 2 11.2822 4.12469 11.3125 6C11.3162 6.22813 11.3902 6.54813 11.4715 6.83406C11.6373 6.75807 11.8176 6.71874 12 6.71875C12.095 6.71875 12.1875 6.72956 12.2768 6.74944L12.5 0.5ZM12 7.28125C11.5997 7.28125 11.2813 7.59969 11.2813 8C11.2813 8.40031 11.5997 8.71875 12 8.71875C12.4003 8.71875 12.7188 8.40031 12.7188 8C12.7188 7.59969 12.4003 7.28125 12 7.28125ZM13.275 8.12603C13.247 8.40897 13.1258 8.66566 12.9428 8.86487L18.2442 12.1834C17.4451 10.5674 15.714 9.31644 14.0748 8.405C13.8758 8.29437 13.5627 8.19859 13.275 8.12603ZM10.7783 8.38459L5.25391 11.3162C7.05297 11.4323 9.00194 10.5587 10.6109 9.59469C10.8069 9.47725 11.0468 9.25294 11.254 9.03938C11.0321 8.87931 10.8627 8.65041 10.7783 8.38459ZM12.5239 9.16803C12.3593 9.24265 12.1807 9.28125 12 9.28125C11.8193 9.28128 11.6407 9.24271 11.4762 9.16813L11.25 15.5H12.75L12.5239 9.16803Z" fill="black"/>
<path d="M24 16.5C24 16.0404 23.6896 15.5852 23.0866 15.1606C22.4835 14.736 21.5996 14.3501 20.4853 14.0251C19.371 13.7001 18.0481 13.4423 16.5922 13.2664C15.1363 13.0905 13.5759 13 12 13C10.4241 13 8.86371 13.0905 7.4078 13.2664C5.95189 13.4423 4.62902 13.7001 3.51472 14.0251C2.40042 14.3501 1.5165 14.736 0.913445 15.1606C0.310389 15.5852 -1.37766e-07 16.0404 0 16.5L12 16.5H24Z" fill="black"/>
</g>
<path d="M23.3887 16L22.1152 11.5491H23.1432L23.8799 14.6417H23.9168L24.7297 11.5491H25.6098L26.4205 14.6482H26.4596L27.1963 11.5491H28.2243L26.9508 16H26.0336L25.1861 13.09H25.1513L24.3059 16H23.3887ZM28.7106 16V12.6618H29.6364V16H28.7106ZM29.1757 12.2315C29.038 12.2315 28.92 12.1859 28.8214 12.0946C28.7244 12.0019 28.6758 11.891 28.6758 11.7621C28.6758 11.6346 28.7244 11.5252 28.8214 11.4339C28.92 11.3412 29.038 11.2948 29.1757 11.2948C29.3133 11.2948 29.4307 11.3412 29.5278 11.4339C29.6263 11.5252 29.6755 11.6346 29.6755 11.7621C29.6755 11.891 29.6263 12.0019 29.5278 12.0946C29.4307 12.1859 29.3133 12.2315 29.1757 12.2315ZM31.3039 14.0701V16H30.3781V12.6618H31.2604V13.2508H31.2995C31.3734 13.0566 31.4973 12.9031 31.6712 12.79C31.845 12.6756 32.0558 12.6184 32.3036 12.6184C32.5354 12.6184 32.7375 12.6691 32.9099 12.7705C33.0824 12.8719 33.2164 13.0168 33.312 13.2051C33.4076 13.392 33.4554 13.6152 33.4554 13.8745V16H32.5296V14.0397C32.5311 13.8354 32.4789 13.676 32.3731 13.5616C32.2674 13.4457 32.1218 13.3877 31.9363 13.3877C31.8117 13.3877 31.7016 13.4145 31.606 13.4681C31.5118 13.5217 31.4379 13.6 31.3843 13.7028C31.3321 13.8042 31.3053 13.9267 31.3039 14.0701ZM35.4152 16.0543C35.1617 16.0543 34.932 15.9891 34.7263 15.8587C34.522 15.7269 34.3597 15.5335 34.2395 15.2785C34.1207 15.022 34.0612 14.7076 34.0612 14.3353C34.0612 13.9528 34.1228 13.6347 34.246 13.3812C34.3691 13.1262 34.5329 12.9357 34.7371 12.8096C34.9429 12.6821 35.1682 12.6184 35.413 12.6184C35.5999 12.6184 35.7557 12.6502 35.8803 12.714C36.0063 12.7763 36.1078 12.8545 36.1846 12.9487C36.2628 13.0414 36.3222 13.1327 36.3628 13.2225H36.391V11.5491H37.3147V16H36.4019V15.4654H36.3628C36.3193 15.5581 36.2577 15.6501 36.178 15.7414C36.0998 15.8312 35.9977 15.9058 35.8716 15.9652C35.747 16.0246 35.5949 16.0543 35.4152 16.0543ZM35.7086 15.3176C35.8578 15.3176 35.9839 15.277 36.0868 15.1959C36.1911 15.1133 36.2708 14.9981 36.3258 14.8503C36.3823 14.7025 36.4106 14.5294 36.4106 14.3309C36.4106 14.1324 36.3831 13.96 36.328 13.8137C36.2729 13.6673 36.1932 13.5543 36.0889 13.4746C35.9846 13.3949 35.8578 13.3551 35.7086 13.3551C35.5565 13.3551 35.4282 13.3964 35.3239 13.479C35.2196 13.5616 35.1407 13.676 35.087 13.8224C35.0334 13.9687 35.0066 14.1382 35.0066 14.3309C35.0066 14.5251 35.0334 14.6967 35.087 14.846C35.1421 14.9938 35.2211 15.1097 35.3239 15.1937C35.4282 15.2763 35.5565 15.3176 35.7086 15.3176Z" fill="black"/>
<path d="M38.1517 16V11.6192H39.5711C40.109 11.6192 40.4596 11.6411 40.623 11.6849C40.874 11.7507 41.0842 11.8941 41.2535 12.1152C41.4228 12.3344 41.5075 12.6183 41.5075 12.9669C41.5075 13.2358 41.4587 13.462 41.3611 13.6452C41.2635 13.8285 41.1389 13.9729 40.9875 14.0785C40.8381 14.1821 40.6857 14.2509 40.5303 14.2847C40.3192 14.3266 40.0134 14.3475 39.6129 14.3475H39.0362V16H38.1517ZM39.0362 12.3603V13.6034H39.5203C39.8689 13.6034 40.102 13.5805 40.2196 13.5347C40.3371 13.4888 40.4287 13.4171 40.4945 13.3195C40.5622 13.2219 40.5961 13.1083 40.5961 12.9788C40.5961 12.8195 40.5493 12.688 40.4556 12.5844C40.362 12.4808 40.2435 12.4161 40.1 12.3902C39.9944 12.3702 39.7823 12.3603 39.4635 12.3603H39.0362ZM42.2217 16V11.6192H43.5455L44.3404 14.6075L45.1263 11.6192H46.4531V16H45.6313V12.5515L44.7617 16H43.9101L43.0435 12.5515V16H42.2217ZM47.1075 14.5746L47.9682 14.4909C48.02 14.7798 48.1246 14.992 48.2819 15.1274C48.4413 15.2629 48.6555 15.3306 48.9244 15.3306C49.2093 15.3306 49.4235 15.2709 49.5669 15.1513C49.7123 15.0298 49.785 14.8884 49.785 14.727C49.785 14.6234 49.7542 14.5357 49.6924 14.464C49.6326 14.3903 49.5271 14.3266 49.3756 14.2728C49.2721 14.2369 49.036 14.1732 48.6674 14.0815C48.1933 13.964 47.8606 13.8196 47.6693 13.6482C47.4004 13.4072 47.2659 13.1133 47.2659 12.7667C47.2659 12.5436 47.3287 12.3354 47.4542 12.1421C47.5817 11.9469 47.764 11.7985 48.001 11.6969C48.2401 11.5953 48.528 11.5445 48.8646 11.5445C49.4145 11.5445 49.8279 11.665 50.1048 11.9061C50.3837 12.1471 50.5301 12.4688 50.5441 12.8713L49.6595 12.9101C49.6217 12.685 49.54 12.5236 49.4145 12.426C49.291 12.3264 49.1047 12.2766 48.8557 12.2766C48.5987 12.2766 48.3975 12.3294 48.2521 12.435C48.1584 12.5027 48.1116 12.5934 48.1116 12.7069C48.1116 12.8105 48.1554 12.8992 48.2431 12.9729C48.3546 13.0665 48.6256 13.1641 49.0559 13.2657C49.4862 13.3673 49.804 13.4729 50.0092 13.5825C50.2163 13.6901 50.3777 13.8385 50.4933 14.0277C50.6108 14.215 50.6696 14.4471 50.6696 14.724C50.6696 14.975 50.5998 15.2101 50.4604 15.4292C50.3209 15.6484 50.1237 15.8117 49.8687 15.9193C49.6137 16.0249 49.296 16.0777 48.9154 16.0777C48.3616 16.0777 47.9363 15.9502 47.6395 15.6952C47.3426 15.4382 47.1653 15.0647 47.1075 14.5746Z" fill="#4BC0C0"/>
</g>
<defs>
<clipPath id="clip0_905_34">
<rect width="51" height="17" fill="white"/>
</clipPath>
<clipPath id="clip1_905_34">
<rect width="16" height="16" fill="white" transform="translate(4)"/>
</clipPath>
</defs>
</svg>
